{"glyphs":{":":{"x_min":0,"x_max":241,"ha":241,"o":"m 119 114 q 151 114 167 98 q 183 82 183 50 q 183 21 167 7 q 151 -8 119 -8 q 90 -8 75 7 q 60 22 60 50 q 60 81 75 97 q 91 114 119 114 z m 60 367 q 60 398 76 415 q 92 431 123 431 q 152 431 168 415 q 183 398 183 367 q 183 338 167 323 q 151 309 119 309 q 90 309 75 324 q 60 339 60 367 z"},"$":{"x_min":0,"x_max":512,"ha":512,"o":"m 267 257 l 267 38 q 309 48 332 75 q 356 103 356 139 q 356 173 334 202 q 312 230 267 257 z m 236 617 q 196 604 176 579 q 156 554 156 516 q 156 485 175 459 q 193 434 236 406 z m 236 728 l 267 728 l 267 664 q 272 665 278 665 q 284 665 296 665 q 329 665 364 660 q 398 656 435 647 l 435 520 l 333 599 q 318 610 305 615 q 292 620 276 620 l 267 620 l 267 390 q 380 327 417 282 q 454 237 454 177 q 454 97 405 48 q 355 0 267 -8 l 267 -69 l 236 -69 l 236 -9 q 190 -9 146 -2 q 101 5 55 19 l 55 152 l 165 56 q 179 44 195 39 q 211 34 236 34 l 236 275 q 138 333 102 379 q 66 425 66 485 q 66 559 109 604 q 153 649 236 663 z"},"?":{"x_min":0,"x_max":435,"ha":435,"o":"m 201 103 q 232 103 248 88 q 264 74 264 45 q 264 20 247 6 q 230 -8 200 -8 q 173 -8 158 6 q 142 21 142 45 q 142 71 158 87 q 174 103 201 103 z m 225 154 l 175 154 q 174 159 174 163 q 174 167 174 176 q 174 201 180 222 q 186 244 203 275 q 213 293 234 326 q 305 442 305 506 q 305 560 279 590 q 252 620 207 620 q 192 620 179 615 q 166 610 153 600 l 43 509 l 43 638 q 90 651 136 657 q 182 664 227 664 q 318 664 375 620 q 431 575 431 505 q 431 475 419 446 q 407 417 382 384 q 351 343 303 297 q 255 250 247 239 q 235 224 230 208 q 225 192 225 169 z"},"<":{"x_min":0,"x_max":833,"ha":833,"o":"m 704 491 l 231 298 l 704 106 l 704 31 l 129 267 l 129 330 l 704 566 z"},"'":{"x_min":0,"x_max":155,"ha":155,"o":"m 112 701 l 112 430 l 44 430 l 44 701 z"},"=":{"x_min":0,"x_max":833,"ha":833,"o":"m 709 235 l 709 167 l 124 167 l 124 235 z m 709 429 l 709 361 l 124 361 l 124 429 z"},"a":{"x_min":0,"x_max":466,"ha":466,"o":"m 300 227 q 214 221 178 200 q 142 179 142 137 q 142 96 169 75 q 195 54 247 54 q 259 54 272 55 q 286 56 300 58 z m 398 329 l 398 154 q 398 103 407 74 q 416 45 437 18 l 322 -9 q 314 3 309 18 q 303 32 300 49 q 252 19 219 5 q 187 -9 163 -9 q 112 -9 75 29 q 39 67 39 122 q 39 192 89 224 q 139 256 247 256 q 263 256 294 254 q 298 254 300 254 l 300 337 q 300 382 282 405 q 264 427 227 427 q 208 427 179 408 q 150 389 81 326 l 81 441 q 130 455 175 462 q 219 469 259 469 q 303 469 333 459 q 362 449 379 428 q 389 415 394 397 q 398 379 398 340 z"},"L":{"x_min":0,"x_max":444,"ha":444,"o":"m 47 655 l 227 655 q 208 622 199 591 q 190 559 190 511 l 190 42 l 282 42 q 298 42 312 47 q 327 52 343 64 l 449 144 l 429 0 l 47 0 q 66 33 74 64 q 83 94 83 135 l 83 145 l 83 518 q 83 563 74 594 q 66 624 47 655 z"},"3":{"x_min":0,"x_max":512,"ha":512,"o":"m 292 344 q 376 333 421 291 q 467 249 467 181 q 467 87 399 36 q 332 -14 206 -14 q 165 -14 123 -9 q 81 -3 38 7 l 38 145 l 141 53 q 153 42 167 36 q 182 31 199 31 q 264 31 306 72 q 347 112 347 177 q 347 246 305 281 q 264 316 180 317 q 261 361 296 406 q 331 450 331 507 q 331 558 298 588 q 264 619 208 619 q 190 619 176 614 q 162 608 145 593 l 47 507 l 47 635 q 94 648 142 655 q 189 661 235 661 q 336 661 391 623 q 446 584 446 515 q 446 460 406 416 q 366 371 292 344 z"},";":{"x_min":0,"x_max":241,"ha":241,"o":"m 72 -134 q 90 -108 100 -75 q 109 -43 111 -5 l 109 -5 q 84 -5 69 10 q 54 24 54 48 q 54 77 70 93 q 86 108 116 108 q 148 108 164 87 q 180 66 180 24 q 180 -33 150 -78 q 119 -123 72 -134 z m 60 367 q 60 398 76 415 q 92 431 123 431 q 152 431 168 415 q 183 398 183 367 q 183 338 167 323 q 151 309 119 309 q 90 309 75 324 q 60 339 60 367 z"},"J":{"x_min":0,"x_max":278,"ha":278,"o":"m 59 655 l 238 655 q 219 623 210 592 q 201 561 201 511 l 201 41 q 201 -50 188 -88 q 174 -126 141 -156 q 112 -182 71 -194 q 29 -207 -26 -207 q -40 -207 -57 -205 q -75 -204 -95 -200 l -95 -80 l -9 -145 l -8 -146 q 12 -160 27 -160 q 64 -160 80 -125 q 95 -90 95 5 l 95 511 q 95 561 86 592 q 78 623 59 655 z"},"V":{"x_min":0,"x_max":557,"ha":557,"o":"m -23 655 l 177 655 q 160 630 153 618 q 147 605 147 596 q 147 590 150 578 q 153 566 159 549 l 301 118 l 455 570 q 458 579 459 587 q 461 594 461 601 q 461 615 438 647 q 435 653 433 655 l 586 655 q 562 631 544 602 q 526 573 513 539 l 309 0 l 234 0 l 48 544 q 35 580 19 605 q 2 631 -23 655 z"},"\"":{"x_min":0,"x_max":300,"ha":300,"o":"m 256 701 l 256 430 l 188 430 l 188 701 z m 112 701 l 112 430 l 44 430 l 44 701 z"},"7":{"x_min":0,"x_max":512,"ha":512,"o":"m 59 655 l 494 655 l 355 329 q 312 227 281 141 q 251 55 239 -4 l 107 -4 l 402 566 l 204 566 q 185 566 173 563 q 161 561 153 554 l 59 483 z"},"S":{"x_min":0,"x_max":482,"ha":482,"o":"m 417 646 l 417 520 l 316 600 q 301 612 288 617 q 274 622 260 622 q 211 622 180 593 q 148 564 148 520 q 148 488 165 464 q 182 440 239 403 l 336 342 q 395 305 418 268 q 441 231 441 179 q 441 90 381 39 q 320 -11 213 -11 q 174 -11 134 -4 q 93 3 46 19 l 46 153 l 156 59 q 171 46 184 41 q 196 36 212 36 q 272 36 306 64 q 341 92 341 140 q 341 171 325 195 q 310 219 266 249 l 159 321 q 102 359 79 398 q 55 436 55 488 q 55 567 113 616 q 170 665 265 665 q 303 665 341 660 q 379 655 417 646 z"},"}":{"x_min":0,"x_max":500,"ha":500,"o":"m 281 546 l 281 426 q 281 354 307 324 q 333 295 397 295 q 400 295 408 295 q 415 296 419 296 l 419 223 q 416 223 408 224 q 401 224 398 224 q 333 224 307 195 q 281 165 281 92 l 281 -28 q 281 -100 270 -131 q 259 -162 232 -178 q 211 -191 182 -197 q 152 -202 99 -202 l 78 -202 l 78 -130 l 97 -130 q 156 -130 176 -108 q 197 -86 197 -17 l 197 100 q 197 178 219 211 q 240 245 295 259 q 240 273 219 307 q 197 340 197 418 l 197 536 q 197 604 176 626 q 156 648 97 648 l 78 648 l 78 721 l 96 721 q 148 721 180 715 q 211 709 232 696 q 259 679 270 649 q 281 618 281 546 z"},"Z":{"x_min":0,"x_max":537,"ha":537,"o":"m 58 655 l 512 655 l 166 45 l 355 45 q 388 45 463 105 q 494 130 513 144 l 494 0 l 17 0 l 364 610 l 209 610 q 167 610 69 530 l 58 521 z"},"x":{"x_min":0,"x_max":470,"ha":470,"o":"m 5 463 l 191 463 q 183 453 179 444 q 175 435 175 426 q 175 420 178 412 q 181 405 187 396 l 246 302 l 306 397 q 307 399 309 401 q 318 417 318 425 q 318 433 301 458 q 299 461 298 463 l 439 463 q 417 447 396 424 q 374 401 349 368 l 271 263 l 368 112 q 391 77 413 50 q 435 23 460 0 l 270 0 q 279 12 284 21 q 289 31 289 38 q 289 46 277 65 q 275 68 274 70 l 206 178 l 134 64 q 129 57 127 51 q 125 44 125 38 q 125 30 130 21 q 135 12 145 0 l 4 0 q 22 15 41 36 q 60 57 80 83 l 181 217 l 84 370 q 66 398 47 422 q 27 445 5 463 z"},")":{"x_min":0,"x_max":263,"ha":263,"o":"m 26 708 q 122 649 172 532 q 222 416 222 250 q 222 83 173 -34 q 123 -151 28 -208 q 75 -127 99 -13 q 123 101 123 247 q 123 392 99 508 q 74 624 26 708 z"},"&":{"x_min":0,"x_max":641,"ha":641,"o":"m 200 316 q 167 289 152 257 q 136 225 136 183 q 136 119 181 78 q 227 37 298 37 q 334 37 364 44 q 394 52 419 67 z m 290 363 l 497 134 q 512 158 520 191 q 528 224 528 262 q 528 288 517 313 q 506 338 465 390 l 593 390 q 596 366 597 347 q 598 328 598 313 q 598 248 580 195 q 562 141 527 98 q 562 61 590 37 q 619 13 645 0 l 479 0 l 445 36 q 404 11 360 -1 q 315 -13 267 -13 q 163 -13 96 38 q 30 90 30 169 q 30 224 67 268 q 104 311 178 343 q 132 387 111 428 q 90 469 90 514 q 90 585 136 625 q 183 664 268 664 q 340 664 382 627 q 425 590 425 528 q 425 478 390 435 q 355 393 290 363 z m 268 388 q 307 419 326 455 q 345 491 345 532 q 345 574 324 599 q 303 623 267 623 q 227 623 206 599 q 184 574 184 529 q 184 499 203 467 q 221 436 268 388 z"},"_":{"x_min":0,"x_max":500,"ha":500,"o":"m 500 -166 l 500 -236 l 0 -236 l 0 -166 z"},"v":{"x_min":0,"x_max":437,"ha":437,"o":"m -21 463 l 178 463 q 160 437 154 425 q 148 414 148 405 q 148 399 150 388 q 153 378 157 365 l 250 92 l 332 358 q 337 374 339 386 q 342 398 342 405 q 342 416 336 430 q 330 444 317 463 l 462 463 q 439 440 422 413 q 404 385 388 343 l 252 -6 l 187 -6 l 61 327 q 60 329 59 332 q 28 414 -21 463 z"},"O":{"x_min":0,"x_max":674,"ha":674,"o":"m 331 618 q 251 618 206 542 q 161 467 161 332 q 161 187 207 109 q 253 31 339 31 q 422 31 468 105 q 513 180 513 317 q 513 463 466 541 q 419 618 331 618 z m 40 316 q 40 477 123 570 q 205 664 345 664 q 476 664 554 575 q 633 487 633 340 q 633 175 551 80 q 470 -15 328 -15 q 196 -15 118 74 q 40 164 40 316 z"},"(":{"x_min":0,"x_max":263,"ha":263,"o":"m 235 708 q 188 628 165 514 q 141 401 141 253 q 141 106 165 -9 q 189 -125 238 -208 q 141 -148 92 -32 q 42 84 42 253 q 42 420 91 537 q 141 653 235 708 z"},"C":{"x_min":0,"x_max":556,"ha":556,"o":"m 528 645 l 528 518 l 411 606 q 400 614 390 617 q 379 620 358 620 q 265 620 211 540 q 157 460 157 321 q 157 185 210 107 q 262 30 354 30 q 373 30 387 34 q 401 39 414 48 l 536 140 l 519 6 q 470 -4 428 -10 q 386 -15 352 -15 q 198 -15 118 68 q 37 151 37 310 q 37 472 125 568 q 212 665 359 665 q 404 665 446 660 q 488 655 528 645 z"},"W":{"x_min":0,"x_max":878,"ha":878,"o":"m -6 655 l 194 655 q 179 638 172 624 q 165 609 165 596 q 165 591 167 583 q 168 574 172 558 l 280 150 l 429 655 l 497 655 l 649 147 l 766 575 q 769 588 770 593 q 771 598 771 600 q 771 611 765 624 q 758 637 744 655 l 894 655 q 868 628 852 600 q 835 572 825 539 l 656 0 l 582 0 l 436 490 l 295 0 l 218 0 l 62 546 q 52 580 36 605 q 20 631 -6 655 z"},"A":{"x_min":0,"x_max":567,"ha":567,"o":"m 266 551 l 182 305 l 344 305 z m 328 667 l 511 130 q 526 87 544 56 q 563 24 589 0 l 389 0 q 406 21 413 34 q 420 48 420 58 q 420 64 417 75 q 415 85 409 104 l 359 259 l 166 259 l 112 101 l 111 97 q 101 68 101 56 q 101 44 108 30 q 115 17 130 0 l -25 0 q -2 22 16 51 q 33 80 57 141 l 253 643 z"},"f":{"x_min":0,"x_max":296,"ha":296,"o":"m 397 692 l 397 584 l 307 650 q 295 659 286 663 q 277 666 267 666 q 230 666 210 636 q 190 607 190 551 l 190 463 l 297 463 l 297 417 l 190 417 l 190 134 q 190 92 199 62 q 208 31 227 0 l 49 0 q 69 34 79 64 q 88 94 88 137 l 88 417 l 24 417 l 24 463 l 88 463 l 88 529 q 88 612 143 659 q 198 706 294 706 q 319 706 344 703 q 370 699 397 692 z"},"Q":{"x_min":0,"x_max":674,"ha":674,"o":"m 410 3 l 585 -102 q 605 -114 623 -120 q 641 -126 658 -126 q 667 -126 696 -124 q 711 -123 719 -122 q 672 -165 639 -185 q 605 -205 580 -205 q 554 -205 528 -193 q 501 -182 471 -157 l 286 -6 q 168 18 104 101 q 41 185 41 318 q 41 478 123 571 q 206 665 345 665 q 477 665 555 576 q 633 486 633 334 q 633 201 573 113 q 514 24 410 3 z m 336 618 q 252 618 207 544 q 161 470 161 333 q 161 190 207 113 q 252 36 337 36 q 422 36 468 109 q 513 183 513 320 q 513 463 467 541 q 420 618 336 618 z"},"w":{"x_min":0,"x_max":704,"ha":704,"o":"m -19 463 l 175 463 q 161 444 154 429 q 147 415 147 407 q 147 401 148 393 q 150 385 153 376 l 233 113 l 350 463 l 400 463 l 519 111 l 596 381 q 599 391 601 399 q 602 407 602 414 q 602 423 596 435 q 590 447 578 463 l 718 463 q 676 419 646 341 q 645 336 644 334 l 518 -7 l 455 -7 l 348 310 l 241 -7 l 176 -7 l 47 362 q 35 396 20 418 q 5 440 -19 463 z"},"-":{"x_min":0,"x_max":250,"ha":250,"o":"m 21 289 l 233 289 l 233 210 l 21 210 z"},"E":{"x_min":0,"x_max":513,"ha":513,"o":"m 49 655 l 459 655 l 459 520 l 363 596 q 352 604 338 608 q 324 612 299 612 l 192 612 l 192 354 l 290 354 q 306 354 320 359 q 334 364 349 375 l 414 422 l 414 247 l 344 297 q 333 305 320 309 q 308 312 281 312 l 192 312 l 192 42 l 314 42 q 329 42 341 47 q 354 51 370 64 l 476 144 l 456 0 l 49 0 q 68 33 76 64 q 85 94 85 135 l 85 145 l 85 518 q 85 563 76 594 q 68 624 49 655 z"},"s":{"x_min":0,"x_max":397,"ha":397,"o":"m 343 451 l 343 341 q 334 348 318 360 q 228 427 202 427 q 177 427 159 410 q 141 394 141 370 q 141 348 155 331 q 168 313 202 295 l 270 259 q 319 232 341 203 q 362 174 362 135 q 362 68 314 27 q 267 -14 187 -14 q 156 -14 119 -8 q 83 -1 44 11 l 44 125 l 63 110 q 165 28 197 28 q 225 28 245 47 q 264 67 264 95 q 264 118 252 133 q 240 149 202 171 l 142 205 q 96 231 72 262 q 49 294 49 330 q 49 393 95 431 q 141 469 218 469 q 246 469 277 465 q 309 460 343 451 z"},">":{"x_min":0,"x_max":833,"ha":833,"o":"m 704 330 l 704 267 l 129 31 l 129 106 l 603 298 l 129 491 l 129 566 z"},"l":{"x_min":0,"x_max":260,"ha":260,"o":"m 179 708 l 179 144 q 179 94 188 63 q 197 32 216 0 l 41 0 q 61 33 69 65 q 78 96 78 144 l 78 551 q 78 583 68 613 q 58 642 35 675 z"},"8":{"x_min":0,"x_max":512,"ha":512,"o":"m 218 312 q 175 279 154 240 q 133 200 133 155 q 133 95 165 61 q 196 26 251 26 q 305 26 340 60 q 374 94 374 146 q 374 188 344 222 q 314 256 218 312 z m 319 366 q 406 318 440 275 q 473 232 473 172 q 473 85 412 34 q 352 -16 246 -16 q 154 -16 97 32 q 39 80 39 156 q 39 214 78 258 q 116 301 193 330 q 129 367 100 408 q 71 449 71 501 q 71 578 122 620 q 174 663 266 663 q 347 663 394 625 q 441 586 441 521 q 441 471 410 432 q 380 393 319 366 z m 291 386 q 325 419 342 452 q 359 486 359 519 q 359 566 333 594 q 307 622 263 622 q 218 622 191 595 q 164 567 164 522 q 164 485 192 454 q 220 424 291 386 z"},"\\":{"x_min":0,"x_max":231,"ha":231,"o":"m 38 687 l 248 -125 l 191 -133 l -18 680 z"},"e":{"x_min":0,"x_max":478,"ha":478,"o":"m 446 252 l 145 252 l 145 246 q 145 147 195 100 q 244 52 346 52 q 370 52 396 55 q 422 58 449 63 q 408 25 360 7 q 312 -12 254 -12 q 158 -12 99 52 q 39 117 39 222 q 39 273 55 318 q 71 362 102 397 q 133 431 174 450 q 216 469 261 469 q 348 469 396 413 q 444 356 446 252 z m 331 299 q 331 364 309 397 q 288 431 246 431 q 201 431 174 390 q 148 349 146 275 z"},"b":{"x_min":0,"x_max":530,"ha":530,"o":"m 174 56 q 195 49 212 45 q 229 42 243 42 q 310 42 349 92 q 389 142 389 226 q 389 309 347 357 q 304 405 232 405 q 221 405 207 404 q 194 403 174 400 z m 174 708 l 174 409 q 216 438 250 452 q 284 467 310 467 q 391 467 442 405 q 493 343 493 244 q 493 137 430 65 q 368 -6 275 -6 q 245 -6 219 2 q 194 10 173 26 l 72 -12 l 72 536 q 72 573 61 606 q 51 639 27 675 z"},"%":{"x_min":0,"x_max":512,"ha":512,"o":"m 368 256 q 342 256 326 224 q 310 191 310 136 q 310 82 325 51 q 341 20 368 20 q 396 20 412 52 q 428 83 428 142 q 428 194 411 225 q 395 256 368 256 z m 368 290 q 427 290 464 248 q 501 206 501 138 q 501 72 464 29 q 426 -14 369 -14 q 311 -14 274 27 q 238 69 238 135 q 238 202 275 246 q 312 290 368 290 z m 502 567 l 523 547 l 27 81 l 8 103 z m 152 630 q 125 630 109 597 q 93 564 93 507 q 93 453 109 421 q 125 389 150 389 q 181 389 197 421 q 213 453 213 513 q 213 566 196 598 q 179 630 152 630 z m 152 662 q 211 662 248 620 q 285 577 285 509 q 285 441 248 398 q 210 355 151 355 q 95 355 58 398 q 22 441 22 507 q 22 574 59 618 q 96 662 152 662 z"},"m":{"x_min":0,"x_max":801,"ha":801,"o":"m 185 473 l 185 412 q 244 443 281 456 q 318 469 344 469 q 376 469 402 454 q 427 439 443 410 q 510 445 548 457 q 586 469 619 469 q 677 469 705 427 q 733 386 733 300 l 733 138 q 733 94 742 63 q 750 33 769 0 l 594 0 q 613 33 622 64 q 631 95 631 139 l 631 144 l 631 264 q 631 345 604 375 q 578 405 511 405 q 498 405 482 404 q 467 403 447 400 q 453 388 456 364 q 459 340 459 300 l 459 144 q 459 94 468 63 q 477 32 496 0 l 321 0 q 340 33 348 64 q 357 96 357 144 l 357 264 q 357 345 331 375 q 304 405 237 405 q 225 405 212 404 q 199 403 185 401 l 185 144 q 185 96 194 64 q 203 33 222 0 l 47 0 q 66 33 75 65 q 84 97 84 144 l 84 316 q 84 348 74 378 q 65 409 45 440 z"},"#":{"x_min":0,"x_max":769,"ha":769,"o":"m 473 419 l 346 419 l 301 290 l 428 290 z m 451 712 l 372 490 l 497 490 l 577 712 l 657 712 l 579 490 l 726 490 l 701 419 l 553 419 l 508 291 l 665 291 l 640 219 l 483 219 l 404 -2 l 323 -2 l 402 219 l 276 219 l 197 -2 l 116 -2 l 194 219 l 43 219 l 69 291 l 220 291 l 265 419 l 104 419 l 129 490 l 291 490 l 370 712 z"},",":{"x_min":0,"x_max":256,"ha":256,"o":"m 91 -134 q 109 -108 119 -75 q 128 -43 130 -5 l 128 -5 q 103 -5 88 10 q 73 24 73 48 q 73 77 89 93 q 104 108 134 108 q 167 108 183 87 q 199 66 199 24 q 199 -33 169 -78 q 138 -123 91 -134 z"},"n":{"x_min":0,"x_max":532,"ha":532,"o":"m 179 473 l 179 412 q 238 441 279 455 q 319 469 347 469 q 405 469 433 427 q 462 385 462 300 l 462 144 q 462 94 471 63 q 479 32 499 0 l 324 0 q 343 32 351 63 q 360 93 360 134 l 360 144 l 360 264 q 360 346 333 375 q 305 405 235 405 q 219 405 206 404 q 192 403 179 401 l 179 144 q 179 96 188 64 q 197 33 216 0 l 41 0 q 60 32 69 64 q 77 95 77 144 l 77 316 q 77 349 68 378 q 59 408 39 440 z"},"h":{"x_min":0,"x_max":530,"ha":530,"o":"m 178 708 l 178 412 q 237 441 278 455 q 318 469 346 469 q 404 469 432 427 q 461 385 461 300 l 461 138 q 461 92 469 62 q 478 32 497 0 l 322 0 q 341 33 350 64 q 359 95 359 139 l 359 144 l 359 264 q 359 346 332 375 q 304 405 234 405 q 218 405 205 404 q 191 403 178 401 l 178 138 q 178 94 187 63 q 195 33 214 0 l 40 0 q 59 32 68 64 q 76 95 76 144 l 76 536 q 76 574 66 606 q 55 638 31 675 z"},"z":{"x_min":0,"x_max":462,"ha":462,"o":"m 66 463 l 432 463 l 173 43 l 287 43 q 303 43 313 46 q 323 49 331 56 l 425 130 l 425 0 l 28 0 l 287 420 l 200 420 q 188 420 179 417 q 169 414 159 407 l 66 340 z"},"B":{"x_min":0,"x_max":544,"ha":544,"o":"m 192 316 l 192 41 l 250 41 q 318 41 354 77 q 391 112 391 179 q 391 246 352 281 q 312 316 238 316 z m 192 615 l 192 356 l 240 356 q 296 356 327 392 q 359 428 359 491 q 359 550 329 583 q 300 615 246 615 z m 47 655 l 260 655 q 372 655 423 618 q 475 581 475 502 q 475 438 432 394 q 390 350 316 339 q 403 336 455 290 q 508 245 508 173 q 508 89 447 45 q 387 0 273 0 l 47 0 q 66 33 75 64 q 84 95 84 139 l 84 144 l 84 511 q 84 559 75 590 q 66 622 47 655 z"},"K":{"x_min":0,"x_max":560,"ha":560,"o":"m 401 655 l 583 655 q 554 637 527 615 q 500 592 474 565 l 300 379 l 488 100 q 509 68 534 44 q 559 21 593 0 l 419 0 l 199 337 l 411 583 q 417 591 422 599 q 426 607 426 612 q 426 622 420 632 q 415 642 401 655 z m 47 655 l 226 655 q 207 622 198 591 q 189 559 189 511 l 189 144 q 189 96 198 64 q 207 33 226 0 l 47 0 q 66 32 74 64 q 83 95 83 144 l 83 511 q 83 560 74 591 q 66 622 47 655 z"},"R":{"x_min":0,"x_max":550,"ha":550,"o":"m 191 616 l 191 353 l 240 353 q 299 353 330 386 q 361 420 361 484 q 361 550 331 583 q 301 616 240 616 z m 48 655 l 284 655 q 336 655 363 649 q 389 643 412 629 q 441 610 459 576 q 476 542 476 503 q 476 434 434 389 q 392 344 316 332 l 463 120 q 488 84 516 54 q 545 24 577 0 l 415 0 l 191 335 l 191 138 q 191 92 199 62 q 208 32 227 0 l 48 0 q 67 32 75 63 q 84 93 84 134 l 84 144 l 84 511 q 84 561 75 592 q 67 623 48 655 z"},"T":{"x_min":0,"x_max":541,"ha":541,"o":"m 12 655 l 538 655 l 538 519 l 441 594 q 432 600 420 604 q 407 608 396 608 l 328 608 l 328 144 q 328 94 337 63 q 346 32 365 0 l 185 0 q 205 33 213 65 q 222 96 222 144 l 222 608 l 153 608 q 142 608 129 604 q 117 600 110 595 l 12 519 z"},"P":{"x_min":0,"x_max":497,"ha":497,"o":"m 187 613 l 187 314 q 196 313 205 313 q 213 313 225 313 q 292 313 327 351 q 361 390 361 465 q 361 535 331 574 q 301 613 248 613 z m 45 655 l 275 655 q 375 655 429 606 q 483 557 483 466 q 483 377 421 323 q 360 270 255 270 q 239 270 200 271 q 192 272 188 272 l 188 144 q 188 94 197 63 q 206 32 225 0 l 45 0 q 64 33 73 65 q 82 96 82 144 l 82 511 q 82 559 73 590 q 64 622 45 655 z"},"|":{"x_min":0,"x_max":500,"ha":500,"o":"m 287 764 l 287 -236 l 214 -236 l 214 764 z"},"t":{"x_min":0,"x_max":345,"ha":345,"o":"m 179 596 l 179 463 l 331 463 l 331 417 l 179 417 l 179 151 q 179 90 201 71 q 222 52 283 52 q 298 52 314 53 q 331 54 352 57 q 317 25 275 8 q 233 -10 191 -10 q 129 -10 104 21 q 78 51 78 130 l 78 417 l -1 417 q 46 452 91 497 q 136 542 179 596 z"},"M":{"x_min":0,"x_max":797,"ha":797,"o":"m 45 655 l 195 655 l 400 158 l 608 655 l 748 655 q 729 623 720 593 q 712 562 712 517 l 712 511 l 712 138 q 712 92 720 62 q 729 32 748 0 l 571 0 q 590 32 598 63 q 607 94 607 144 l 607 513 l 392 0 l 349 0 l 139 513 l 139 138 q 139 92 148 62 q 156 32 175 0 l 45 0 q 64 32 73 63 q 81 94 81 144 l 81 511 q 81 561 73 592 q 64 623 45 655 z"},"g":{"x_min":0,"x_max":509,"ha":509,"o":"m 131 1 q 116 -19 109 -38 q 101 -58 101 -75 q 101 -111 137 -135 q 172 -158 228 -158 q 298 -158 344 -129 q 389 -100 389 -58 q 389 -31 371 -19 q 353 -7 314 -7 l 197 -7 q 173 -7 158 -5 q 143 -3 131 1 z m 228 435 q 192 435 171 408 q 151 381 151 334 q 151 276 174 240 q 198 205 236 205 q 271 205 292 231 q 313 257 313 302 q 313 362 290 399 q 266 435 228 435 z m 492 470 l 492 388 l 358 426 q 384 404 397 375 q 410 347 410 312 q 410 250 359 210 q 309 170 228 170 q 217 170 192 173 q 188 174 187 174 q 182 162 179 152 q 177 143 177 134 q 177 110 193 100 q 209 89 247 89 l 343 89 q 410 89 440 65 q 469 41 469 -12 q 469 -49 451 -84 q 433 -120 401 -145 q 365 -174 319 -190 q 273 -205 223 -205 q 134 -205 76 -174 q 18 -143 18 -98 q 18 -73 41 -49 q 64 -26 122 7 q 102 18 92 32 q 82 47 82 66 q 82 90 103 114 q 124 138 179 175 q 117 188 83 223 q 49 259 49 313 q 49 382 100 426 q 151 469 232 469 q 263 469 291 461 q 318 453 345 436 z"},"j":{"x_min":0,"x_max":266,"ha":266,"o":"m 190 473 l 190 33 q 190 -89 143 -148 q 97 -207 0 -207 q -17 -207 -33 -206 q -49 -204 -63 -201 l -63 -90 l 2 -145 l 3 -146 q 21 -161 36 -161 q 64 -161 77 -130 q 89 -99 89 -23 l 89 316 q 89 345 80 375 q 70 406 50 440 z m 137 691 q 167 691 184 676 q 200 662 200 635 q 200 608 184 594 q 168 580 137 580 q 107 580 91 594 q 75 609 75 636 q 75 662 92 676 q 108 691 137 691 z"},"i":{"x_min":0,"x_max":265,"ha":265,"o":"m 186 473 l 186 144 q 186 96 195 64 q 204 33 223 0 l 48 0 q 67 33 75 65 q 84 97 84 144 l 84 316 q 84 347 74 377 q 65 408 46 440 z m 133 687 q 163 687 179 672 q 196 657 196 631 q 196 604 180 590 q 164 576 132 576 q 102 576 86 591 q 71 605 71 632 q 71 658 87 673 q 104 687 133 687 z"},"y":{"x_min":0,"x_max":449,"ha":449,"o":"m -14 463 l 183 463 q 166 440 159 427 q 153 414 153 405 q 153 399 155 392 q 157 384 161 373 l 260 103 l 342 369 q 345 380 347 389 q 349 398 349 405 q 349 414 343 427 q 337 441 323 463 l 468 463 q 444 439 427 411 q 410 382 395 345 l 248 -46 q 213 -137 176 -172 q 139 -206 78 -206 q 69 -206 54 -204 q 39 -202 14 -198 l 14 -87 l 76 -137 q 85 -145 95 -149 q 104 -153 112 -153 q 135 -153 159 -119 q 182 -85 208 -12 l 55 356 q 54 358 52 363 q 29 421 -14 463 z"},"@":{"x_min":0,"x_max":1000,"ha":1000,"o":"m 627 417 l 655 473 l 719 473 l 648 192 q 646 184 645 177 q 644 169 644 163 q 644 141 656 129 q 669 117 693 117 q 716 117 743 130 q 770 143 795 167 q 834 204 856 258 q 878 312 878 372 q 878 499 785 577 q 692 656 541 656 q 476 656 421 642 q 366 628 318 600 q 225 544 173 454 q 122 363 122 254 q 122 167 152 104 q 182 40 246 -9 q 295 -46 362 -67 q 428 -87 502 -87 q 584 -87 662 -63 q 740 -39 805 6 l 832 -34 q 760 -88 678 -116 q 597 -143 508 -143 q 415 -143 338 -120 q 261 -97 201 -52 q 126 6 89 82 q 52 158 52 255 q 52 335 77 408 q 103 480 151 539 q 222 626 323 671 q 423 716 545 716 q 625 716 696 694 q 768 672 820 632 q 883 583 916 519 q 949 455 949 381 q 949 295 918 227 q 887 159 828 112 q 795 85 755 71 q 715 57 674 57 q 625 57 601 76 q 576 96 576 134 l 576 143 q 549 100 513 79 q 477 58 429 58 q 354 58 315 100 q 276 141 276 220 q 276 335 343 413 q 411 490 509 490 q 550 490 580 472 q 609 454 627 417 z m 581 232 l 610 347 q 602 390 576 414 q 551 437 513 437 q 446 437 400 374 q 354 310 354 218 q 354 167 378 139 q 401 111 445 111 q 492 111 530 145 q 568 178 581 232 z"},".":{"x_min":0,"x_max":256,"ha":256,"o":"m 80 50 q 80 81 96 97 q 112 114 143 114 q 172 114 188 98 q 203 82 203 50 q 203 21 187 7 q 171 -8 139 -8 q 110 -8 95 7 q 80 22 80 50 z"},"p":{"x_min":0,"x_max":538,"ha":538,"o":"m 177 56 q 193 49 209 45 q 225 42 241 42 q 311 42 351 92 q 392 143 392 229 q 392 316 349 362 q 306 408 226 408 q 217 408 206 406 q 194 405 177 401 z m 178 473 l 178 411 q 220 440 257 456 q 294 472 322 472 q 398 472 448 409 q 499 347 499 250 q 499 142 436 67 q 374 -8 286 -8 q 256 -8 229 0 q 202 8 177 24 l 177 -62 q 177 -107 186 -140 q 194 -172 214 -206 l 40 -206 q 60 -172 68 -139 q 77 -106 77 -62 l 77 313 q 77 349 68 378 q 59 408 38 440 z"},"X":{"x_min":0,"x_max":584,"ha":584,"o":"m 19 655 l 226 655 q 214 641 208 629 q 202 618 202 610 q 202 603 207 592 q 211 582 222 562 l 311 409 l 406 571 q 413 582 417 593 q 421 604 421 609 q 421 615 416 625 q 411 635 397 655 l 554 655 q 536 638 514 612 q 493 586 468 551 l 337 365 l 496 96 q 506 78 528 53 q 549 29 579 0 l 372 0 q 387 21 391 30 q 396 39 396 44 q 396 51 392 61 q 388 70 379 85 l 271 269 l 164 84 q 158 74 155 64 q 152 54 152 47 q 152 39 158 27 q 165 16 178 0 l 17 0 q 39 21 61 48 q 84 76 110 114 l 245 313 l 107 548 q 93 572 71 599 q 49 626 19 655 z"},"*":{"x_min":0,"x_max":340,"ha":340,"o":"m 75 680 l 168 555 l 39 644 z m 11 576 l 165 550 l 11 523 z m 166 544 l 77 418 l 38 456 z m 171 544 l 196 390 l 144 390 z m 175 545 l 304 456 l 266 418 z m 329 576 l 329 523 l 175 550 z m 268 681 l 307 643 l 175 555 z m 144 708 l 196 708 l 171 554 z"},"Y":{"x_min":0,"x_max":527,"ha":527,"o":"m -30 655 l 174 655 q 162 636 157 625 q 153 615 153 608 q 153 601 157 590 q 161 580 169 567 l 292 359 l 405 576 q 405 577 406 579 q 416 598 416 609 q 416 616 410 627 q 404 639 393 655 l 552 655 q 523 629 499 598 q 474 568 452 532 l 318 316 l 318 138 q 318 92 326 62 q 335 32 354 0 l 175 0 q 194 32 202 63 q 211 94 211 144 l 211 295 l 57 552 q 38 584 17 609 q -4 633 -30 655 z"},"c":{"x_min":0,"x_max":431,"ha":431,"o":"m 404 452 l 404 333 l 302 409 q 290 418 279 423 q 268 427 257 427 q 210 427 178 373 q 146 320 146 239 q 146 147 192 99 q 239 51 328 51 q 361 51 387 53 q 413 56 431 60 q 391 23 346 6 q 302 -12 250 -12 q 156 -12 98 51 q 39 113 39 214 q 39 328 107 399 q 175 470 285 470 q 315 470 344 466 q 374 461 404 452 z"},"!":{"x_min":0,"x_max":241,"ha":241,"o":"m 126 103 q 158 103 174 88 q 190 74 190 45 q 190 20 173 6 q 156 -8 126 -8 q 100 -8 84 6 q 68 21 68 45 q 68 71 84 87 q 100 103 126 103 z m 62 655 l 197 655 l 151 155 l 108 155 z"},"/":{"x_min":0,"x_max":231,"ha":231,"o":"m 192 687 l 248 680 l 39 -133 l -18 -125 z"},"[":{"x_min":0,"x_max":262,"ha":262,"o":"m 75 708 l 226 708 q 207 683 194 665 q 181 648 175 639 q 168 630 166 618 q 163 606 163 586 l 163 569 l 163 -83 q 163 -117 177 -144 q 192 -170 226 -208 l 75 -208 z"},"6":{"x_min":0,"x_max":512,"ha":512,"o":"m 146 326 q 145 313 145 299 q 144 284 144 259 q 144 134 172 79 q 200 23 262 23 q 313 23 341 64 q 368 104 368 182 q 368 260 333 300 q 298 339 228 339 q 211 339 190 336 q 169 333 146 326 z m 477 607 q 451 611 431 613 q 411 615 396 615 q 280 615 222 555 q 164 494 150 358 q 182 375 218 383 q 253 391 292 391 q 375 391 430 336 q 485 280 485 196 q 485 102 422 43 q 359 -15 258 -15 q 146 -15 88 59 q 29 132 29 273 q 29 452 109 559 q 188 665 322 665 q 371 665 410 650 q 449 636 477 607 z"},"r":{"x_min":0,"x_max":359,"ha":359,"o":"m 183 473 l 183 398 q 226 436 255 452 q 284 469 307 469 q 318 469 330 467 q 342 464 353 460 l 353 346 q 325 369 297 380 q 269 391 237 391 q 224 391 210 390 q 197 390 183 388 l 183 138 q 183 94 192 63 q 200 33 219 0 l 45 0 q 64 32 73 64 q 81 95 81 144 l 81 316 q 80 352 70 381 q 60 411 41 440 z"},"2":{"x_min":0,"x_max":512,"ha":512,"o":"m 153 89 l 357 89 q 382 89 412 105 q 442 122 476 154 l 454 0 l 12 0 q 211 212 272 307 q 332 401 332 476 q 332 543 303 582 q 274 620 225 620 q 207 620 191 614 q 175 607 159 593 l 58 507 l 58 639 q 112 651 160 657 q 208 663 252 663 q 346 663 401 617 q 456 570 456 491 q 456 420 399 341 q 342 261 153 89 z"},"{":{"x_min":0,"x_max":500,"ha":500,"o":"m 423 648 l 403 648 q 344 648 324 626 q 304 604 304 536 l 304 418 q 304 340 282 307 q 261 273 206 259 q 261 245 283 212 q 304 179 304 100 l 304 -18 q 304 -87 324 -108 q 345 -130 404 -130 l 423 -130 l 423 -202 l 402 -202 q 349 -202 319 -197 q 290 -191 269 -178 q 242 -162 231 -131 q 220 -100 220 -28 l 220 92 q 220 165 194 194 q 167 224 103 224 q 100 224 93 224 q 85 223 82 223 l 82 296 q 86 296 93 295 q 101 295 104 295 q 167 295 194 324 q 220 354 220 426 l 220 546 q 220 618 231 649 q 242 679 269 696 q 291 709 322 715 q 353 721 405 721 l 423 721 z"},"9":{"x_min":0,"x_max":512,"ha":512,"o":"m 30 45 q 49 42 70 40 q 90 38 114 38 q 227 38 289 102 q 351 165 362 291 q 325 274 291 265 q 256 257 225 257 q 138 257 81 312 q 25 367 25 453 q 25 546 88 604 q 151 662 252 662 q 362 662 421 591 q 480 519 480 384 q 480 195 404 93 q 327 -10 188 -10 q 141 -10 101 4 q 61 18 30 45 z m 363 323 q 364 341 365 357 q 366 373 366 386 q 366 510 338 568 q 310 626 251 626 q 196 626 169 586 q 141 545 141 466 q 141 389 175 350 q 209 310 276 310 q 296 310 318 313 q 340 316 363 323 z"}," ":{"x_min":0,"x_max":256,"ha":256,"o":""},"I":{"x_min":0,"x_max":274,"ha":274,"o":"m 47 655 l 227 655 q 208 623 199 593 q 191 562 191 517 l 191 511 l 191 138 q 191 92 199 62 q 208 32 227 0 l 47 0 q 66 33 75 65 q 84 96 84 144 l 84 511 q 84 559 75 590 q 66 622 47 655 z"},"H":{"x_min":0,"x_max":642,"ha":642,"o":"m 47 655 l 228 655 q 208 623 200 592 q 191 561 191 517 l 191 511 l 191 360 l 452 360 l 452 511 q 452 559 443 590 q 435 622 415 655 l 595 655 q 576 623 567 592 q 558 561 558 517 l 558 511 l 558 138 q 558 94 567 63 q 576 33 595 0 l 415 0 q 435 33 443 65 q 452 96 452 144 l 452 314 l 191 314 l 191 138 q 191 94 200 63 q 208 33 228 0 l 47 0 q 66 33 75 65 q 84 96 84 144 l 84 511 q 84 559 75 590 q 66 622 47 655 z"},"4":{"x_min":0,"x_max":512,"ha":512,"o":"m 302 555 l 100 252 l 302 252 z m 397 666 l 397 252 l 493 252 l 493 174 l 397 174 l 397 124 q 397 86 406 56 q 415 25 434 0 l 264 0 q 283 30 292 62 q 302 95 302 129 l 302 174 l 2 174 q 70 291 146 406 q 222 520 310 636 z"},"~":{"x_min":0,"x_max":833,"ha":833,"o":"m 747 300 q 696 265 650 248 q 604 231 557 231 q 512 231 432 259 q 421 263 416 265 l 408 268 q 322 297 275 297 q 234 297 189 279 q 145 261 87 220 l 87 296 q 139 331 186 349 q 232 366 276 366 q 306 366 338 360 q 370 353 418 336 q 426 333 441 328 q 519 300 558 300 q 601 300 646 318 q 690 336 747 376 z"},"D":{"x_min":0,"x_max":653,"ha":653,"o":"m 188 610 l 188 45 l 281 45 q 384 45 438 118 q 491 191 491 332 q 491 471 438 540 q 386 610 281 610 z m 45 655 l 290 655 q 371 655 419 641 q 468 626 508 594 q 557 554 584 490 q 611 426 611 349 q 611 265 588 200 q 565 135 519 87 q 474 40 417 20 q 359 0 253 0 l 45 0 q 64 33 73 64 q 82 95 82 139 l 82 144 l 82 511 q 82 559 73 590 q 64 622 45 655 z"},"^":{"x_min":0,"x_max":1000,"ha":1000,"o":"m 545 712 l 794 440 l 706 440 l 500 645 l 293 440 l 205 440 l 454 712 z"},"0":{"x_min":0,"x_max":512,"ha":512,"o":"m 256 619 q 198 619 171 545 q 143 471 143 317 q 143 169 169 98 q 196 28 251 28 q 308 28 338 100 q 368 172 368 310 q 368 476 342 548 q 315 619 256 619 z m 28 329 q 28 487 91 576 q 154 664 267 664 q 371 664 428 575 q 485 486 485 324 q 485 163 422 73 q 360 -16 248 -16 q 142 -16 85 73 q 28 162 28 329 z"},"F":{"x_min":0,"x_max":464,"ha":464,"o":"m 45 655 l 456 655 l 456 520 l 360 596 q 349 605 336 608 q 323 612 296 612 l 189 612 l 189 354 l 286 354 q 302 354 317 359 q 332 364 346 375 l 410 422 l 410 247 l 341 297 q 330 305 317 309 q 304 312 277 312 l 189 312 l 189 138 q 189 94 198 63 q 207 33 225 0 l 45 0 q 64 34 73 65 q 82 96 82 140 l 82 145 l 82 512 q 82 562 73 593 q 64 623 45 655 z"},"`":{"x_min":0,"x_max":500,"ha":500,"o":"m 94 695 l 233 695 l 343 537 l 317 537 z"},"k":{"x_min":0,"x_max":498,"ha":498,"o":"m 321 463 l 505 463 q 467 442 436 420 q 404 398 375 372 l 279 288 l 425 84 q 447 54 468 34 q 488 15 512 0 l 356 0 l 188 247 l 324 394 q 332 402 335 409 q 339 417 339 423 q 339 431 334 441 q 330 451 321 463 z m 177 708 l 177 138 q 177 93 186 63 q 194 32 213 0 l 39 0 q 58 34 66 65 q 75 96 75 138 l 75 144 l 75 551 q 74 584 64 614 q 54 644 33 675 z"},"u":{"x_min":0,"x_max":528,"ha":528,"o":"m 173 473 l 173 184 q 173 109 198 83 q 223 57 291 57 q 305 57 320 58 q 335 60 353 62 l 353 316 q 353 349 344 378 q 335 408 315 440 l 455 473 l 455 151 q 455 115 464 85 q 473 56 493 24 l 353 -9 l 353 53 q 301 23 260 8 q 220 -7 189 -7 q 127 -7 99 30 q 71 66 71 147 l 71 316 q 71 348 62 377 q 52 407 32 440 z"},"]":{"x_min":0,"x_max":262,"ha":262,"o":"m 36 708 l 187 708 l 187 -208 l 36 -208 q 70 -170 85 -143 q 99 -116 99 -81 l 99 -69 l 99 581 q 99 616 84 643 q 70 670 36 708 z"},"U":{"x_min":0,"x_max":624,"ha":624,"o":"m 34 655 l 212 655 q 194 623 185 592 q 177 561 177 512 l 177 213 q 177 114 210 72 q 244 30 322 30 q 375 30 411 48 q 448 66 464 101 q 473 119 476 143 q 480 167 480 207 l 480 247 l 480 512 q 480 561 471 592 q 463 623 444 655 l 590 655 q 570 622 561 591 q 552 560 552 511 l 552 217 q 552 159 547 131 q 542 103 530 80 q 505 33 448 9 q 392 -16 308 -16 q 184 -16 128 32 q 72 81 72 189 l 72 511 q 72 559 63 590 q 54 622 34 655 z"},"o":{"x_min":0,"x_max":538,"ha":538,"o":"m 264 432 q 213 432 183 380 q 153 328 153 237 q 153 138 185 80 q 216 22 269 22 q 325 22 355 73 q 385 123 385 217 q 385 319 353 376 q 321 432 264 432 z m 39 226 q 39 334 104 402 q 168 469 273 469 q 374 469 436 403 q 499 336 499 229 q 499 121 434 52 q 370 -16 267 -16 q 165 -16 102 51 q 39 117 39 226 z"},"N":{"x_min":0,"x_max":633,"ha":633,"o":"m 45 655 l 178 655 l 498 183 l 498 511 q 498 559 489 590 q 480 622 461 655 l 593 655 q 574 623 565 592 q 556 561 556 511 l 556 -5 l 497 -5 l 140 519 l 140 144 q 140 94 149 63 q 158 32 177 0 l 45 0 q 64 33 73 65 q 82 96 82 144 l 82 511 q 82 559 73 590 q 64 622 45 655 z"},"+":{"x_min":0,"x_max":833,"ha":833,"o":"m 451 596 l 451 332 l 709 332 l 709 264 l 451 264 l 451 0 l 382 0 l 382 264 l 124 264 l 124 332 l 382 332 l 382 596 z"},"G":{"x_min":0,"x_max":608,"ha":608,"o":"m 546 644 l 546 519 l 437 600 q 424 610 408 615 q 392 620 372 620 q 273 620 217 542 q 160 463 160 324 q 160 176 217 104 q 273 32 389 32 q 399 32 410 33 q 421 34 435 36 l 435 155 q 435 175 433 187 q 431 200 427 210 l 401 268 l 580 268 l 555 213 q 548 200 546 188 q 543 175 543 160 l 543 8 q 495 -3 446 -9 q 396 -14 344 -14 q 200 -14 120 71 q 40 157 40 310 q 40 476 131 570 q 221 665 380 665 q 420 665 462 660 q 503 654 546 644 z"},"q":{"x_min":0,"x_max":532,"ha":532,"o":"m 362 406 q 345 414 328 417 q 312 421 293 421 q 229 421 188 370 q 148 318 148 236 q 148 148 190 103 q 233 57 314 57 q 324 57 334 58 q 345 59 362 62 z m 463 475 l 463 -62 q 463 -109 472 -141 q 480 -173 500 -206 l 325 -206 q 345 -172 353 -140 q 362 -107 362 -62 l 362 53 q 311 19 279 6 q 248 -8 221 -8 q 144 -8 94 54 q 43 116 43 212 q 43 322 105 396 q 168 470 259 470 q 287 470 313 462 q 339 454 363 437 z"},"d":{"x_min":0,"x_max":538,"ha":538,"o":"m 361 405 q 344 413 328 416 q 312 420 297 420 q 228 420 187 369 q 146 319 146 232 q 146 147 188 101 q 230 54 307 54 q 321 54 335 56 q 348 57 361 60 z m 462 708 l 462 153 q 462 107 471 78 q 479 48 499 18 l 361 -11 l 361 50 q 318 21 281 5 q 243 -11 216 -11 q 140 -11 90 52 q 39 115 39 212 q 39 320 102 395 q 165 469 252 469 q 281 469 308 461 q 335 453 361 437 l 361 541 q 361 573 351 603 q 342 633 316 675 z"},"1":{"x_min":0,"x_max":512,"ha":512,"o":"m 332 665 l 332 132 q 332 87 341 59 q 350 30 369 0 l 187 0 q 208 33 217 65 q 226 97 226 145 l 226 157 l 226 537 l 76 537 q 114 551 177 582 q 239 613 332 665 z"},"5":{"x_min":0,"x_max":512,"ha":512,"o":"m 76 655 l 435 655 l 435 566 l 134 566 l 134 396 q 166 405 196 409 q 226 414 254 414 q 357 414 415 359 q 473 304 473 205 q 473 104 404 45 q 335 -14 216 -14 q 184 -14 145 -9 q 105 -4 56 6 l 56 145 l 159 55 q 174 42 187 36 q 200 31 216 31 q 278 31 317 77 q 357 123 357 197 q 357 274 313 317 q 270 359 190 359 q 165 359 137 356 q 109 353 76 346 z"}}}
